<svg width="225" height="50" xmlns="http://www.w3.org/2000/svg"><g id="Symbols" fill="none" fill-rule="evenodd"><g id="footer" transform="translate(-214 -73)" fill-rule="nonzero"><g transform="translate(214 73)" id="logo_barwne_poziom_RGB_footer">
<path d="M81.128 18h-9.264c-.471 0-.864.349-.864.853V32.69s.04.31.353.31h2.591c.354 0 .354-.349.354-.349V21.178h6.634c3.415 0 5.81 2.791 5.81 5.737v5.736a.35.35 0 0 0 .353.349h2.552c.353 0 .353-.31.353-.31v-6.008C89.921 22.457 86.545 18 81.128 18m79.781 7.83v.736c0 1.667-1.32 3.217-3.13 3.217h-6.482c-1.848 0-3.13-1.55-3.13-3.217v-2.132c0-1.667 1.32-3.217 3.13-3.217h6.484c1.847 0 3.129 1.55 3.129 3.217v1.395zm-3.13-7.83h-6.559c-3.958 0-6.22 3.488-6.22 6.28v2.44c0 2.792 2.262 6.28 6.22 6.28h6.56c3.958 0 6.22-3.488 6.22-6.28v-2.44c0-2.792-2.262-6.28-6.22-6.28zm-26.107 0h-2.6c-.354 0-.315.31-.315.31v8.256c0 1.9-1.576 3.217-3.27 3.217h-5.948c-1.694 0-3.27-1.357-3.27-3.217V18.31s0-.31-.315-.31h-2.6c-.315 0-.354.31-.354.31v8.295c0 4.07 3.545 6.395 6.382 6.395h6.224c2.836 0 6.381-2.326 6.381-6.395V18.31c.04 0 0-.31-.315-.31m-33.089 3.178h5.913a3.255 3.255 0 0 1 3.272 2.985H95.31c.118-1.59 1.42-2.985 3.272-2.985M104.496 18h-5.992C94.365 18 92 21.488 92 24.28v2.44c0 2.792 2.365 6.28 6.504 6.28h10.289c.788 0 1.419-.659 1.419-1.395v-1.512s-.08-.31-.355-.31H98.544c-1.814 0-3.115-1.395-3.272-2.946h14.782a.96.96 0 0 0 .946-.969V24.28c0-2.79-2.365-6.279-6.504-6.279m77.155 5.89h-10.036c-.846 0-1.27-.736-1.27-1.279v-.116c0-.698.577-1.279 1.27-1.279h12.728c.346 0 .346-.349.346-.349v-2.17c0-.31-.269-.698-.692-.698h-12.805c-2.808 0-4.154 2.403-4.154 4.147v.892c.039 2.054 1.73 4.07 4.154 4.07h9.729c.615 0 .961.58.961.969v.736c0 .465-.385.969-.961.969h-13.575c-.346 0-.346.349-.346.349v2.17c0 .31.27.698.692.698h14.075c1.73 0 3.23-1.512 3.23-3.372v-2.403c.077-1.667-1.27-3.334-3.346-3.334m39.964 0h-10.038c-.846 0-1.27-.736-1.27-1.279v-.116c0-.698.577-1.279 1.27-1.279h12.73c.346 0 .346-.349.346-.349v-2.17c0-.31-.27-.698-.692-.698h-12.807c-2.77 0-4.154 2.403-4.154 4.147v.892c.038 2.054 1.73 4.07 4.154 4.07h9.768c.654 0 .962.58.962.969v.736c0 .465-.385.969-.962.969h-13.576c-.346 0-.346.349-.346.349v2.17c0 .31.27.698.692.698h14.077c1.73 0 3.23-1.512 3.23-3.372v-2.403c.039-1.667-1.307-3.334-3.384-3.334M142.664 18h-2.502C136.24 18 134 21.1 134 23.891v8.799s0 .31.336.31h2.091c.673 0 .673-.698.673-.698V23.93a2.802 2.802 0 0 1 2.838-2.752h2.726c.224 0 .336-.194.336-.349V18.31s0-.31-.336-.31m62.685.075h-2.18c-.192 0-.306.151-.306.151l-4.093 10.66c-.267.677-.88.64-.88.64h-2.6c-.689 0-.956-.792-.956-.792l-4.82-10.32s-.19-.414-.611-.414h-2.563c-.23 0-.42.226-.306.49l5.278 11.3c1.148 2.447 2.869 2.824 3.901 2.824h2.066l-1.913 4.934c-.114.226.115.452.306.452h2.257c.535 0 .803-.339.918-.678l.65-1.733 6.425-16.685c.23-.339-.076-.829-.573-.829" id="Shape" fill="#FFF"/><path d="M27.79 7.719L29 6.72V0h-2.809c-.702 0-1.6.192-2.419.883-.78.692-22.275 21.928-22.275 21.928L.21 23.925C-.22 24.27.053 25 .639 25h8.933c1.483 0 2.497-.96 2.497-.96L27.791 7.719zm7.048 34.524L33 43.856v4.531L34.838 50h1.57c.69 0 1.57-.192 2.374-.883.766-.692 19.682-19.7 19.682-19.7.115-.116.46-.5.536-.96L53.103 25c-1.455 0-2.45.96-2.45.96L34.837 42.243z" id="Shape" fill="#41B6E6"/><path d="M34.352 48.387V1.613c0-.73-.575-1.613-1.61-1.613H25c.997 0 1.61.806 1.61 1.613v46.774c0 .73.575 1.613 1.61 1.613H36a1.604 1.604 0 0 1-1.648-1.613m24.646-21.082v-5.28A1.02 1.02 0 0 0 57.971 21H41.027C40.67 21 40 21.315 40 22.025v5.95c0 .63.513 1.025 1.027 1.025H58.8c.237-.473.198-1.103.198-1.695" id="Shape" fill="#298FC2"/>
</g></g></g></svg>